<mxfile host="app.diagrams.net" modified="2023-06-18T19:51:48.144Z" agent="Mozilla/5.0 (Windows NT 10.0; Win64; x64) AppleWebKit/537.36 (KHTML, like Gecko) Chrome/114.0.0.0 Safari/537.36" etag="GVDyXmOo7vKv-C-LxiYC" version="21.4.0" type="device">
  <diagram name="Page-1" id="prgj0ACUzZ8hv-Qcq1tn">
    <mxGraphModel dx="1366" dy="787" grid="1" gridSize="10" guides="1" tooltips="1" connect="1" arrows="1" fold="1" page="1" pageScale="1" pageWidth="850" pageHeight="1100" math="0" shadow="0">
      <root>
        <mxCell id="0" />
        <mxCell id="1" parent="0" />
        <mxCell id="Ppy8xZ3GpLMqL5RuFNkA-1" value="Reservation microservice" style="rounded=0;whiteSpace=wrap;html=1;fillColor=#60a917;fontColor=#ffffff;strokeColor=#2D7600;" vertex="1" parent="1">
          <mxGeometry x="130" y="110" width="190" height="140" as="geometry" />
        </mxCell>
        <mxCell id="Ppy8xZ3GpLMqL5RuFNkA-2" value="Reservation state machine (Orcestrator)" style="rounded=0;whiteSpace=wrap;html=1;" vertex="1" parent="1">
          <mxGeometry x="30" y="200" width="160" height="60" as="geometry" />
        </mxCell>
        <mxCell id="Ppy8xZ3GpLMqL5RuFNkA-3" value="" style="endArrow=classic;html=1;rounded=0;entryX=0;entryY=0.364;entryDx=0;entryDy=0;entryPerimeter=0;" edge="1" parent="1" target="Ppy8xZ3GpLMqL5RuFNkA-1">
          <mxGeometry width="50" height="50" relative="1" as="geometry">
            <mxPoint x="10" y="161" as="sourcePoint" />
            <mxPoint x="90" y="180" as="targetPoint" />
          </mxGeometry>
        </mxCell>
        <mxCell id="Ppy8xZ3GpLMqL5RuFNkA-5" value="Post /api/resevations&amp;nbsp;" style="text;html=1;strokeColor=none;fillColor=none;align=center;verticalAlign=middle;whiteSpace=wrap;rounded=0;" vertex="1" parent="1">
          <mxGeometry x="30" y="120" width="60" height="30" as="geometry" />
        </mxCell>
        <mxCell id="Ppy8xZ3GpLMqL5RuFNkA-6" value="" style="endArrow=classic;html=1;rounded=0;exitX=1.009;exitY=0.18;exitDx=0;exitDy=0;entryX=-0.015;entryY=0.177;entryDx=0;entryDy=0;entryPerimeter=0;exitPerimeter=0;" edge="1" parent="1" source="Ppy8xZ3GpLMqL5RuFNkA-1" target="Ppy8xZ3GpLMqL5RuFNkA-7">
          <mxGeometry width="50" height="50" relative="1" as="geometry">
            <mxPoint x="319.24" y="180.01" as="sourcePoint" />
            <mxPoint x="609.9999999999998" y="187" as="targetPoint" />
          </mxGeometry>
        </mxCell>
        <mxCell id="Ppy8xZ3GpLMqL5RuFNkA-7" value="Notifications microservice" style="rounded=0;whiteSpace=wrap;html=1;fillColor=#1ba1e2;strokeColor=#006EAF;fontColor=#ffffff;" vertex="1" parent="1">
          <mxGeometry x="730" y="110" width="190" height="140" as="geometry" />
        </mxCell>
        <mxCell id="Ppy8xZ3GpLMqL5RuFNkA-10" value="Email microservice" style="rounded=0;whiteSpace=wrap;html=1;fillColor=#1ba1e2;strokeColor=#006EAF;fontColor=#ffffff;" vertex="1" parent="1">
          <mxGeometry x="140" y="480" width="190" height="120" as="geometry" />
        </mxCell>
        <mxCell id="Ppy8xZ3GpLMqL5RuFNkA-11" value="Publisher" style="text;html=1;strokeColor=none;fillColor=none;align=center;verticalAlign=middle;whiteSpace=wrap;rounded=0;" vertex="1" parent="1">
          <mxGeometry x="330" y="100" width="60" height="30" as="geometry" />
        </mxCell>
        <mxCell id="Ppy8xZ3GpLMqL5RuFNkA-14" value="CreateReservationCommand" style="shape=ext;double=1;rounded=1;whiteSpace=wrap;html=1;" vertex="1" parent="1">
          <mxGeometry x="430" y="90" width="170" height="40" as="geometry" />
        </mxCell>
        <mxCell id="Ppy8xZ3GpLMqL5RuFNkA-15" value="Consumer&lt;br&gt;" style="text;html=1;strokeColor=none;fillColor=none;align=center;verticalAlign=middle;whiteSpace=wrap;rounded=0;" vertex="1" parent="1">
          <mxGeometry x="660" y="105" width="60" height="30" as="geometry" />
        </mxCell>
        <mxCell id="Ppy8xZ3GpLMqL5RuFNkA-16" value="" style="endArrow=classic;html=1;rounded=0;exitX=-0.007;exitY=0.873;exitDx=0;exitDy=0;entryX=1.001;entryY=0.874;entryDx=0;entryDy=0;entryPerimeter=0;exitPerimeter=0;" edge="1" parent="1" source="Ppy8xZ3GpLMqL5RuFNkA-7" target="Ppy8xZ3GpLMqL5RuFNkA-1">
          <mxGeometry width="50" height="50" relative="1" as="geometry">
            <mxPoint x="430" y="280" as="sourcePoint" />
            <mxPoint x="320" y="220" as="targetPoint" />
          </mxGeometry>
        </mxCell>
        <mxCell id="Ppy8xZ3GpLMqL5RuFNkA-17" value="Publisher" style="text;html=1;strokeColor=none;fillColor=none;align=center;verticalAlign=middle;whiteSpace=wrap;rounded=0;" vertex="1" parent="1">
          <mxGeometry x="660" y="190" width="60" height="30" as="geometry" />
        </mxCell>
        <mxCell id="Ppy8xZ3GpLMqL5RuFNkA-18" value="Consumer&lt;br&gt;" style="text;html=1;strokeColor=none;fillColor=none;align=center;verticalAlign=middle;whiteSpace=wrap;rounded=0;" vertex="1" parent="1">
          <mxGeometry x="330" y="190" width="60" height="30" as="geometry" />
        </mxCell>
        <mxCell id="Ppy8xZ3GpLMqL5RuFNkA-19" value="CreatedNoticiationEvent" style="shape=ext;double=1;rounded=1;whiteSpace=wrap;html=1;" vertex="1" parent="1">
          <mxGeometry x="450" y="185" width="150" height="40" as="geometry" />
        </mxCell>
        <mxCell id="Ppy8xZ3GpLMqL5RuFNkA-22" value="Step 1" style="text;html=1;strokeColor=none;fillColor=none;align=center;verticalAlign=middle;whiteSpace=wrap;rounded=0;" vertex="1" parent="1">
          <mxGeometry x="140" y="60" width="60" height="30" as="geometry" />
        </mxCell>
        <mxCell id="Ppy8xZ3GpLMqL5RuFNkA-23" value="" style="endArrow=classic;html=1;rounded=0;exitX=0.841;exitY=1.035;exitDx=0;exitDy=0;exitPerimeter=0;" edge="1" parent="1" source="Ppy8xZ3GpLMqL5RuFNkA-1">
          <mxGeometry width="50" height="50" relative="1" as="geometry">
            <mxPoint x="440" y="400" as="sourcePoint" />
            <mxPoint x="290" y="480" as="targetPoint" />
          </mxGeometry>
        </mxCell>
        <mxCell id="Ppy8xZ3GpLMqL5RuFNkA-24" value="CreateEmailCommand" style="shape=ext;double=1;rounded=1;whiteSpace=wrap;html=1;" vertex="1" parent="1">
          <mxGeometry x="300" y="350" width="150" height="40" as="geometry" />
        </mxCell>
        <mxCell id="Ppy8xZ3GpLMqL5RuFNkA-27" value="Step 3" style="text;html=1;strokeColor=none;fillColor=none;align=center;verticalAlign=middle;whiteSpace=wrap;rounded=0;" vertex="1" parent="1">
          <mxGeometry x="365" y="525" width="60" height="30" as="geometry" />
        </mxCell>
        <mxCell id="Ppy8xZ3GpLMqL5RuFNkA-28" value="" style="ellipse;shape=cloud;whiteSpace=wrap;html=1;fillColor=#6a00ff;fontColor=#ffffff;strokeColor=#3700CC;" vertex="1" parent="1">
          <mxGeometry x="400" y="500" width="210" height="70" as="geometry" />
        </mxCell>
        <mxCell id="Ppy8xZ3GpLMqL5RuFNkA-29" value="Create and Send Email" style="text;html=1;strokeColor=none;fillColor=none;align=center;verticalAlign=middle;whiteSpace=wrap;rounded=0;" vertex="1" parent="1">
          <mxGeometry x="445" y="525" width="125" height="30" as="geometry" />
        </mxCell>
        <mxCell id="Ppy8xZ3GpLMqL5RuFNkA-38" value="" style="ellipse;shape=cloud;whiteSpace=wrap;html=1;fillColor=#6a00ff;fontColor=#ffffff;strokeColor=#3700CC;" vertex="1" parent="1">
          <mxGeometry x="190" y="30" width="210" height="70" as="geometry" />
        </mxCell>
        <mxCell id="Ppy8xZ3GpLMqL5RuFNkA-39" value="Creating Reservation" style="text;html=1;strokeColor=none;fillColor=none;align=center;verticalAlign=middle;whiteSpace=wrap;rounded=0;" vertex="1" parent="1">
          <mxGeometry x="240" y="50" width="125" height="30" as="geometry" />
        </mxCell>
        <mxCell id="Ppy8xZ3GpLMqL5RuFNkA-40" value="Step 2" style="text;html=1;strokeColor=none;fillColor=none;align=center;verticalAlign=middle;whiteSpace=wrap;rounded=0;" vertex="1" parent="1">
          <mxGeometry x="680" y="50" width="60" height="30" as="geometry" />
        </mxCell>
        <mxCell id="Ppy8xZ3GpLMqL5RuFNkA-41" value="" style="ellipse;shape=cloud;whiteSpace=wrap;html=1;fillColor=#6a00ff;fontColor=#ffffff;strokeColor=#3700CC;" vertex="1" parent="1">
          <mxGeometry x="730" y="20" width="210" height="70" as="geometry" />
        </mxCell>
        <mxCell id="Ppy8xZ3GpLMqL5RuFNkA-42" value="Create And Send Notification" style="text;html=1;strokeColor=none;fillColor=none;align=center;verticalAlign=middle;whiteSpace=wrap;rounded=0;" vertex="1" parent="1">
          <mxGeometry x="780" y="40" width="125" height="30" as="geometry" />
        </mxCell>
        <mxCell id="Ppy8xZ3GpLMqL5RuFNkA-43" value="" style="endArrow=classic;html=1;rounded=0;exitX=0.5;exitY=0;exitDx=0;exitDy=0;" edge="1" parent="1" source="Ppy8xZ3GpLMqL5RuFNkA-10">
          <mxGeometry width="50" height="50" relative="1" as="geometry">
            <mxPoint x="300" y="265" as="sourcePoint" />
            <mxPoint x="235" y="250" as="targetPoint" />
          </mxGeometry>
        </mxCell>
        <mxCell id="Ppy8xZ3GpLMqL5RuFNkA-44" value="CreatedEmailResponse" style="shape=ext;double=1;rounded=1;whiteSpace=wrap;html=1;" vertex="1" parent="1">
          <mxGeometry x="70" y="370" width="150" height="40" as="geometry" />
        </mxCell>
        <mxCell id="Ppy8xZ3GpLMqL5RuFNkA-45" value="Publisher" style="text;html=1;strokeColor=none;fillColor=none;align=center;verticalAlign=middle;whiteSpace=wrap;rounded=0;" vertex="1" parent="1">
          <mxGeometry x="300" y="260" width="60" height="30" as="geometry" />
        </mxCell>
        <mxCell id="Ppy8xZ3GpLMqL5RuFNkA-46" value="Publisher" style="text;html=1;strokeColor=none;fillColor=none;align=center;verticalAlign=middle;whiteSpace=wrap;rounded=0;" vertex="1" parent="1">
          <mxGeometry x="160" y="440" width="60" height="30" as="geometry" />
        </mxCell>
        <mxCell id="Ppy8xZ3GpLMqL5RuFNkA-47" value="Consumer&lt;br&gt;" style="text;html=1;strokeColor=none;fillColor=none;align=center;verticalAlign=middle;whiteSpace=wrap;rounded=0;" vertex="1" parent="1">
          <mxGeometry x="305" y="440" width="60" height="30" as="geometry" />
        </mxCell>
        <mxCell id="Ppy8xZ3GpLMqL5RuFNkA-48" value="Consumer&lt;br&gt;" style="text;html=1;strokeColor=none;fillColor=none;align=center;verticalAlign=middle;whiteSpace=wrap;rounded=0;" vertex="1" parent="1">
          <mxGeometry x="170" y="280" width="60" height="30" as="geometry" />
        </mxCell>
      </root>
    </mxGraphModel>
  </diagram>
</mxfile>
